# xmcd
#
# Track frame offsets:
# 183
# 12183
# 24233
# 38083
# 53358
# 67090
# 77975
# 90350
# 104073
# 119998
# 135748
# 149068
# 159650
# 181958
# 191890
# 200200
# 214450
# 227683
# 241965
# 255113
#
# Disc length: 3585 seconds
#
#
# Revision: 0
# Processed by: cddbd v1.4PL0 Copyright (c) Steve Scherf et al.
# Submitted via: FreeRIP 2.30 
#
DISCID=260dff14
DTITLE=Dolly Parton - Both Sides of Dolly Parton
DYEAR=1900
DGENRE=Country
TTITLE0=JOLENE
TTITLE1=BARGAIN STORE
TTITLE2=COAT OF MANY COLOURS
TTITLE3=APPLEJACK
TTITLE4=TWO DOORS DOWN
TTITLE5=SHATTERED IMAGE
TTITLE6=LIVING ON MEMORIES OF YOU
TTITLE7=MY TENNESSEE MOUNTAIN HOME
TTITLE8=HEARTBREAKER
TTITLE9=SURE THING
TTITLE10=HERE YOU COME AGAIN
TTITLE11=LOVE IS LIKE A BUTTERFLY
TTITLE12=LIGHT OF A CLEAR BLUE MORNING
TTITLE13=TRAVELLING MAN
TTITLE14=RANDY
TTITLE15=LONELY COMING DOWN
TTITLE16=JOSHUA
TTITLE17=SWEET MUSIC MAN
TTITLE18=HIGHER AND HIGHER
TTITLE19=THE SEEKER
EXTD=
EXTT0=
EXTT1=
EXTT2=
EXTT3=
EXTT4=
EXTT5=
EXTT6=
EXTT7=
EXTT8=
EXTT9=
EXTT10=
EXTT11=
EXTT12=
EXTT13=
EXTT14=
EXTT15=
EXTT16=
EXTT17=
EXTT18=
EXTT19=
PLAYORDER=
